<?xml version="1.0" encoding="UTF-8"?><svg id="Layer_1" xmlns="http://www.w3.org/2000/svg" viewBox="0 0 64 64"><defs><style>.cls-1{fill:#fff;}.cls-2{fill:#e72b27;}</style></defs><path class="cls-2" d="m50.8,23.52c-.82-4.93-4.65-9.31-9.72-12.04-4.04-2.18-7.53-5.47-7.53-5.47,0,0,0,22.58,0,25.32s-2.72,2.12-2.72,2.12c0,0,0,0,0,0-1.26-.34-3.24-1.02-5.02-1.02-7.07,0-12.79,5.73-12.79,12.79s5.73,12.79,12.79,12.79,12.79-5.73,12.79-12.79v-23.19c.41-3.01,3.84-1.13,4.79-.68,4.93,2.33,7.53,6.71,7.53,6.71,0,0,.14-2.87-.14-4.52Z"/><path class="cls-1" d="m31.18,41.54c-1.92-2.37-4.5-1.56-5.39.42-.89-1.97-3.47-2.79-5.39-.42-1.97,2.44-.11,5.33,1.05,6.27,1.28,1.05,4.34,4.06,4.34,4.06,0,0,3.09-3.02,4.34-4.06,1.14-.95,3.02-3.83,1.05-6.27Z"/></svg>